<?xml version="1.0" encoding="UTF-8" standalone="no"?>
<!DOCTYPE svg PUBLIC "-//W3C//DTD SVG 1.1//EN"
 "http://www.w3.org/Graphics/SVG/1.1/DTD/svg11.dtd">
<!-- Generated by graphviz version 2.43.0 (0)
 -->
<!-- Title: G Pages: 1 -->
<svg width="985pt" height="148pt"
 viewBox="0.00 0.00 985.00 147.50" xmlns="http://www.w3.org/2000/svg" xmlns:xlink="http://www.w3.org/1999/xlink">
<g id="graph0" class="graph" transform="scale(1 1) rotate(0) translate(4 143.5)">
<title>G</title>
<polygon fill="white" stroke="transparent" points="-4,4 -4,-143.5 981,-143.5 981,4 -4,4"/>
<!-- SensorModule -->
<g id="node1" class="node">
<title>SensorModule</title>
<text text-anchor="start" x="0.5" y="-90.4" font-family="Arial" font-size="12.00"> &#160;&#160;&#160;&#160;&#160;</text>
<polygon fill="#f0f0f0" stroke="transparent" points="19.5,-47.5 19.5,-139.5 121.5,-139.5 121.5,-47.5 19.5,-47.5"/>
<text text-anchor="start" x="28.5" y="-91.4" font-family="Arial" font-weight="bold" font-size="12.00">SensorModule</text>
<polygon fill="none" stroke="black" points="19.5,-47.5 19.5,-139.5 121.5,-139.5 121.5,-47.5 19.5,-47.5"/>
<polygon fill="#ffffff" stroke="transparent" points="121.5,-47.5 121.5,-139.5 225.5,-139.5 225.5,-47.5 121.5,-47.5"/>
<polygon fill="none" stroke="black" points="121.5,-116.5 121.5,-139.5 225.5,-139.5 225.5,-116.5 121.5,-116.5"/>
<text text-anchor="start" x="128" y="-124.9" font-family="Arial" font-size="12.00">WheelSpeed_FL</text>
<polygon fill="none" stroke="black" points="121.5,-93.5 121.5,-116.5 225.5,-116.5 225.5,-93.5 121.5,-93.5"/>
<text text-anchor="start" x="126.5" y="-101.9" font-family="Arial" font-size="12.00">WheelSpeed_FR</text>
<polygon fill="none" stroke="black" points="121.5,-70.5 121.5,-93.5 225.5,-93.5 225.5,-70.5 121.5,-70.5"/>
<text text-anchor="start" x="131" y="-78.9" font-family="Arial" font-size="12.00">ThrottlePosition</text>
<polygon fill="none" stroke="black" points="121.5,-47.5 121.5,-70.5 225.5,-70.5 225.5,-47.5 121.5,-47.5"/>
<text text-anchor="start" x="133.5" y="-55.9" font-family="Arial" font-size="12.00">BrakePressure</text>
</g>
<!-- ECU -->
<g id="node2" class="node">
<title>ECU</title>
<polygon fill="#ffffff" stroke="transparent" points="297.5,-47.5 297.5,-139.5 434.5,-139.5 434.5,-47.5 297.5,-47.5"/>
<polygon fill="none" stroke="black" points="297.5,-116.5 297.5,-139.5 434.5,-139.5 434.5,-116.5 297.5,-116.5"/>
<text text-anchor="start" x="304" y="-124.9" font-family="Arial" font-size="12.00">Input_WheelSpeed_FL</text>
<polygon fill="none" stroke="black" points="297.5,-93.5 297.5,-116.5 434.5,-116.5 434.5,-93.5 297.5,-93.5"/>
<text text-anchor="start" x="302.5" y="-101.9" font-family="Arial" font-size="12.00">Input_WheelSpeed_FR</text>
<polygon fill="none" stroke="black" points="297.5,-70.5 297.5,-93.5 434.5,-93.5 434.5,-70.5 297.5,-70.5"/>
<text text-anchor="start" x="307" y="-78.9" font-family="Arial" font-size="12.00">Input_ThrottlePosition</text>
<polygon fill="none" stroke="black" points="297.5,-47.5 297.5,-70.5 434.5,-70.5 434.5,-47.5 297.5,-47.5"/>
<text text-anchor="start" x="309.5" y="-55.9" font-family="Arial" font-size="12.00">Input_BrakePressure</text>
<polygon fill="#f0f0f0" stroke="transparent" points="434.5,-47.5 434.5,-139.5 479.5,-139.5 479.5,-47.5 434.5,-47.5"/>
<text text-anchor="start" x="443.5" y="-91.4" font-family="Arial" font-weight="bold" font-size="12.00">ECU</text>
<polygon fill="none" stroke="black" points="434.5,-47.5 434.5,-139.5 479.5,-139.5 479.5,-47.5 434.5,-47.5"/>
<polygon fill="#ffffff" stroke="transparent" points="479.5,-47.5 479.5,-139.5 620.5,-139.5 620.5,-47.5 479.5,-47.5"/>
<polygon fill="none" stroke="black" points="479.5,-108.5 479.5,-139.5 620.5,-139.5 620.5,-108.5 479.5,-108.5"/>
<text text-anchor="start" x="492.5" y="-120.9" font-family="Arial" font-size="12.00">Output_Engine_RPM</text>
<polygon fill="none" stroke="black" points="479.5,-77.5 479.5,-108.5 620.5,-108.5 620.5,-77.5 479.5,-77.5"/>
<text text-anchor="start" x="484.5" y="-89.9" font-family="Arial" font-size="12.00">Output_Brake_Actuation</text>
<polygon fill="none" stroke="black" points="479.5,-47.5 479.5,-77.5 620.5,-77.5 620.5,-47.5 479.5,-47.5"/>
<text text-anchor="start" x="488.5" y="-59.4" font-family="Arial" font-size="12.00">Output_Vehicle_Status</text>
</g>
<!-- SensorModule&#45;&gt;ECU -->
<g id="edge1" class="edge">
<title>SensorModule:WheelSpeed_FL&#45;&gt;ECU:Input_WheelSpeed_FL</title>
<path fill="none" stroke="black" d="M225,-128.5C225,-128.5 267.21,-128.5 286.99,-128.5"/>
<polygon fill="black" stroke="black" points="287,-132 297,-128.5 287,-125 287,-132"/>
</g>
<!-- SensorModule&#45;&gt;ECU -->
<g id="edge2" class="edge">
<title>SensorModule:WheelSpeed_FR&#45;&gt;ECU:Input_WheelSpeed_FR</title>
<path fill="none" stroke="black" d="M225,-105.5C225,-105.5 267.21,-105.5 286.99,-105.5"/>
<polygon fill="black" stroke="black" points="287,-109 297,-105.5 287,-102 287,-109"/>
</g>
<!-- SensorModule&#45;&gt;ECU -->
<g id="edge3" class="edge">
<title>SensorModule:ThrottlePosition&#45;&gt;ECU:Input_ThrottlePosition</title>
<path fill="none" stroke="black" d="M225,-81.5C225,-81.5 267.21,-81.5 286.99,-81.5"/>
<polygon fill="black" stroke="black" points="287,-85 297,-81.5 287,-78 287,-85"/>
</g>
<!-- SensorModule&#45;&gt;ECU -->
<g id="edge4" class="edge">
<title>SensorModule:BrakePressure&#45;&gt;ECU:Input_BrakePressure</title>
<path fill="none" stroke="black" d="M225,-58.5C225,-58.5 267.21,-58.5 286.99,-58.5"/>
<polygon fill="black" stroke="black" points="287,-62 297,-58.5 287,-55 287,-62"/>
</g>
<!-- ActuatorModule -->
<g id="node3" class="node">
<title>ActuatorModule</title>
<polygon fill="#ffffff" stroke="transparent" points="708.5,-89.5 708.5,-135.5 832.5,-135.5 832.5,-89.5 708.5,-89.5"/>
<polygon fill="none" stroke="black" points="708.5,-112.5 708.5,-135.5 832.5,-135.5 832.5,-112.5 708.5,-112.5"/>
<text text-anchor="start" x="722" y="-120.9" font-family="Arial" font-size="12.00">Set_Engine_RPM</text>
<polygon fill="none" stroke="black" points="708.5,-89.5 708.5,-112.5 832.5,-112.5 832.5,-89.5 708.5,-89.5"/>
<text text-anchor="start" x="713.5" y="-97.9" font-family="Arial" font-size="12.00">Set_Brake_Actuation</text>
<polygon fill="#f0f0f0" stroke="transparent" points="832.5,-89.5 832.5,-135.5 942.5,-135.5 942.5,-89.5 832.5,-89.5"/>
<text text-anchor="start" x="841.5" y="-110.4" font-family="Arial" font-weight="bold" font-size="12.00">ActuatorModule</text>
<polygon fill="none" stroke="black" points="832.5,-89.5 832.5,-135.5 942.5,-135.5 942.5,-89.5 832.5,-89.5"/>
<text text-anchor="start" x="942.5" y="-109.4" font-family="Arial" font-size="12.00"> &#160;&#160;&#160;&#160;&#160;</text>
</g>
<!-- ECU&#45;&gt;ActuatorModule -->
<g id="edge5" class="edge">
<title>ECU:Output_Engine_RPM&#45;&gt;ActuatorModule:Set_Engine_RPM</title>
<path fill="none" stroke="black" d="M620,-124.5C620,-124.5 674.48,-124.5 697.46,-124.5"/>
<polygon fill="black" stroke="black" points="697.5,-128 707.5,-124.5 697.5,-121 697.5,-128"/>
</g>
<!-- ECU&#45;&gt;ActuatorModule -->
<g id="edge6" class="edge">
<title>ECU:Output_Brake_Actuation&#45;&gt;ActuatorModule:Set_Brake_Actuation</title>
<path fill="none" stroke="black" d="M620,-92.5C620,-92.5 674.48,-97.48 697.46,-99.58"/>
<polygon fill="black" stroke="black" points="697.22,-103.07 707.5,-100.5 697.86,-96.1 697.22,-103.07"/>
</g>
<!-- CommunicationModule -->
<g id="node4" class="node">
<title>CommunicationModule</title>
<polygon fill="#ffffff" stroke="transparent" points="692.5,0.5 692.5,-30.5 807.5,-30.5 807.5,0.5 692.5,0.5"/>
<polygon fill="none" stroke="black" points="692.5,0.5 692.5,-30.5 807.5,-30.5 807.5,0.5 692.5,0.5"/>
<text text-anchor="start" x="697.5" y="-11.9" font-family="Arial" font-size="12.00">ReceiveECUStatus</text>
<polygon fill="#f0f0f0" stroke="transparent" points="807.5,0.5 807.5,-30.5 958.5,-30.5 958.5,0.5 807.5,0.5"/>
<text text-anchor="start" x="816.5" y="-12.9" font-family="Arial" font-weight="bold" font-size="12.00">CommunicationModule</text>
<polygon fill="none" stroke="black" points="807.5,0.5 807.5,-30.5 958.5,-30.5 958.5,0.5 807.5,0.5"/>
<text text-anchor="start" x="958.5" y="-11.9" font-family="Arial" font-size="12.00"> &#160;&#160;&#160;&#160;&#160;</text>
</g>
<!-- ECU&#45;&gt;CommunicationModule -->
<g id="edge7" class="edge">
<title>ECU:Output_Vehicle_Status&#45;&gt;CommunicationModule:ReceiveECUStatus</title>
<path fill="none" stroke="black" d="M620,-62.5C620,-62.5 664.39,-32.91 683.46,-20.19"/>
<polygon fill="black" stroke="black" points="685.62,-22.96 692,-14.5 681.74,-17.13 685.62,-22.96"/>
</g>
</g>
</svg>
